<?xml version="1.0" standalone="no"?>
<!DOCTYPE svg PUBLIC "-//W3C//DTD SVG 20010904//EN"
 "http://www.w3.org/TR/2001/REC-SVG-20010904/DTD/svg10.dtd">
<svg version="1.0" xmlns="http://www.w3.org/2000/svg"
 width="900.000000pt" height="900.000000pt" viewBox="0 0 900.000000 900.000000"
 preserveAspectRatio="xMidYMid meet">
<metadata>
Created by potrace 1.11, written by Peter Selinger 2001-2013
</metadata>
<g transform="translate(0.000000,900.000000) scale(0.100000,-0.100000)"
fill="#000000" stroke="none">
<path d="M0 4500 l0 -4500 4500 0 4500 0 0 4500 0 4500 -4500 0 -4500 0 0
-4500z m5163 1525 c193 -30 439 -97 571 -156 l45 -19 -45 -108 c-25 -59 -75
-179 -111 -267 -36 -88 -67 -162 -69 -164 -2 -2 -39 12 -81 31 -97 45 -212 81
-345 110 -87 18 -134 22 -298 22 -169 -1 -206 -3 -275 -22 -169 -46 -336 -147
-438 -265 -188 -216 -267 -457 -267 -810 0 -272 39 -469 132 -657 44 -90 63
-117 137 -191 73 -73 101 -93 181 -132 136 -65 221 -82 410 -80 133 0 377 25
403 40 4 2 7 155 7 339 l0 334 -305 0 -305 0 0 280 0 280 635 0 635 0 0 -830
0 -830 -27 -11 c-114 -44 -435 -116 -643 -145 -156 -21 -589 -30 -717 -15
-343 42 -618 165 -818 366 -229 230 -369 559 -414 977 -16 143 -14 467 4 600
66 501 294 872 680 1108 206 126 477 206 795 234 93 8 429 -4 523 -19z"/>
</g>
</svg>
